<?xml version="1.0" ?><svg enable-background="new -173.725 52.148 413.165 458.701" id="Layer_1" version="1.1" viewBox="-173.725 52.148 413.165 458.701" xml:space="preserve" xmlns="http://www.w3.org/2000/svg" xmlns:xlink="http://www.w3.org/1999/xlink"><g><g id="_x39_1-discord"><g><g><path d="M239.089,200.354c-0.166-2.634-0.322-5.123-0.309-7.506l0.023-3.545c0.03-4.312,0.062-8.769,0.022-13.2      c-0.049-5.434-0.217-10.625-0.433-16.853c-0.073-2.085-0.072-4.208-0.071-6.455c0.001-3.267,0.003-6.641-0.231-10.139      c0.002-2.335,0.025-4.668,0.048-7.003c0.025-2.563,0.05-5.127,0.049-7.689c-0.001-5.017-0.427-9.89-1.299-14.835      c0.001-0.044,0.001-0.089,0.001-0.134c0-5.733-0.236-11.891-1.954-18.076c-1.57-5.656-4.146-10.817-7.669-15.379      c-0.461-2.176-1.503-4.083-3.115-5.695c-2.029-2.029-4.021-3.5-5.779-4.798c-1.366-1.009-2.547-1.881-3.518-2.852      c-0.761-0.76-1.638-1.393-2.6-1.873c-1.136-0.568-1.981-1.199-2.189-1.392c-0.899-0.899-1.963-1.619-3.132-2.12      c-9.43-4.042-18.493-6.09-26.939-6.09c-1.422,0-2.781,0.297-4.015,0.833c-4.344,0.556-8.831,0.382-13.53,0.199l-1.573-0.06      c-7.597-0.281-14.731,0.27-21.78,1.685c-2.451-0.054-4.938-0.184-7.551-0.321c-2.986-0.157-6.075-0.32-9.201-0.363      c-3.229-0.044-6.456-0.104-9.685-0.165c-2.695-0.05-5.391-0.101-8.087-0.142c-3.282-0.05-6.564-0.113-9.847-0.177      c-2.641-0.052-5.282-0.103-7.924-0.147c-3.045-0.05-6.085-0.031-9.025-0.01c-3.022,0.02-5.877,0.041-8.755-0.011      c-2.888-0.051-5.75-0.169-8.779-0.294c-2.928-0.12-5.955-0.245-8.989-0.303c-3.157-0.06-6.263,0.014-9.265,0.085      c-2.961,0.071-5.756,0.138-8.52,0.082c-2.842-0.058-5.67-0.196-8.666-0.343c-2.961-0.146-6.022-0.295-9.105-0.361      c-2.807-0.059-5.615-0.214-8.588-0.379c-2.981-0.165-6.063-0.336-9.18-0.404c-3.232-0.071-6.378,0.034-9.422,0.136      c-2.919,0.097-5.677,0.189-8.372,0.128c-2.973-0.067-5.944-0.162-8.917-0.257c-2.953-0.095-5.907-0.189-8.86-0.257      c-2.8-0.065-5.601-0.225-8.566-0.394c-2.989-0.17-6.08-0.347-9.206-0.419c-2.928-0.069-5.857-0.12-8.786-0.17      c-2.999-0.052-5.998-0.104-8.998-0.175c-3.178-0.077-6.302-0.012-9.323,0.049c-2.943,0.06-5.724,0.116-8.472,0.05      c-2.872-0.069-5.836-0.199-8.704-0.324c-2.952-0.129-6.004-0.263-9.06-0.336c-0.577-0.014-1.154,0.022-1.726,0.108      c-9.054,1.359-16.191,3.424-22.462,6.498c-6.734,3.301-12.921,8.206-18.914,14.991c-6.184,7.001-10.087,14.172-11.933,21.923      c-0.053,0.223-0.098,0.447-0.136,0.673c-0.898,5.386-0.784,10.405-0.674,15.258c0.032,1.399,0.064,2.797,0.068,4.195      c-0.117,2.576-0.417,5.237-0.734,8.05c-0.349,3.098-0.709,6.302-0.849,9.635c-0.135,3.248-0.107,6.426-0.079,9.5      c0.027,2.941,0.052,5.718-0.061,8.443c-0.117,2.824-0.323,5.639-0.541,8.619c-0.22,3.014-0.448,6.131-0.578,9.28      c-0.129,3.154-0.164,6.287-0.196,9.317c-0.032,2.981-0.063,5.798-0.177,8.619c-0.114,2.83-0.303,5.64-0.503,8.615      c-0.203,3.022-0.413,6.148-0.537,9.292c-0.124,3.13-0.185,6.263-0.245,9.293c-0.056,2.848-0.113,5.793-0.223,8.642      c-0.107,2.806-0.3,5.603-0.504,8.563c-0.209,3.038-0.425,6.179-0.543,9.352c-0.098,2.641-0.203,5.281-0.307,7.922      c-0.132,3.335-0.264,6.671-0.383,10.009c-0.118,3.303-0.041,6.518,0.033,9.626c0.07,2.908,0.135,5.655,0.044,8.333      c-0.094,2.773-0.283,5.547-0.483,8.484c-0.208,3.063-0.423,6.231-0.526,9.441c-0.09,2.782-0.263,5.558-0.447,8.496      c-0.191,3.064-0.39,6.233-0.486,9.438c-0.099,3.282-0.023,6.491,0.05,9.595c0.068,2.884,0.133,5.609,0.062,8.285      c-0.213,4.746-0.245,9.525-0.275,14.148l-0.021,2.871c-0.019,2.298-0.167,4.67-0.323,7.181      c-0.196,3.139-0.398,6.385-0.361,9.763c0.028,2.563,0.036,5.124,0.044,7.684c0.009,3.039,0.019,6.073,0.061,9.1      c0.029,2.063,0.071,4.12,0.114,6.172c0.074,3.606,0.145,7.013,0.145,10.436c0,6.977,1.402,14.175,4.055,20.818      c2.366,5.926,6.047,11.658,11.253,17.524c4.542,5.117,9.872,9.484,15.844,12.981c5.764,3.374,12.188,5.847,19.092,7.348      c0.577,0.126,1.164,0.2,1.754,0.222c3.088,0.114,6.158,0.141,9.127,0.167c2.874,0.024,5.588,0.048,8.316,0.145      c2.713,0.096,5.421,0.273,8.288,0.462c2.968,0.195,6.038,0.397,9.141,0.502c3.063,0.104,6.118,0.132,9.073,0.159      c2.894,0.026,5.627,0.052,8.378,0.141c2.804,0.093,5.607,0.224,8.411,0.354c3.006,0.14,6.014,0.278,9.025,0.375      c2.681,0.085,5.385,0.285,8.249,0.498c2.971,0.22,6.042,0.447,9.174,0.545c3.193,0.101,6.303,0.021,9.31-0.055      c2.843-0.072,5.529-0.138,8.149-0.06c2.602,0.08,5.272,0.324,8.1,0.583c3,0.275,6.103,0.56,9.311,0.657      c3.061,0.095,6.095,0.089,9.029,0.088c2.913-0.006,5.664-0.007,8.414,0.078c3.095,0.096,6.143,0.069,9.091,0.042      c2.897-0.024,5.633-0.05,8.347,0.035c2.845,0.089,5.779,0.233,8.617,0.374c2.868,0.142,5.833,0.288,8.794,0.383      c2.962,0.095,5.923,0.209,8.883,0.324c2.846,0.11,5.69,0.221,8.535,0.314c2.688,0.088,5.407,0.305,8.287,0.534      c2.946,0.235,5.993,0.479,9.106,0.584c3.094,0.105,6.135,0.08,9.079,0.056c2.9-0.025,5.644-0.048,8.351,0.049      c2.766,0.098,5.613,0.3,8.628,0.514c2.976,0.211,6.052,0.43,9.086,0.542c5.39,0.228,9.961-3.905,10.345-9.281      c0.354-4.97,0.352-10.346-0.021-16.59c2.213,2.159,4.481,4.31,6.828,6.395c0.346,0.308,0.712,0.591,1.097,0.847      c1.29,0.86,2.716,1.918,4.225,3.038c1.401,1.04,2.844,2.11,4.299,3.11c4.975,4.734,9.187,8.553,13.211,11.978      c3.527,3.003,7.154,5.805,10.662,8.516c1.282,0.99,2.563,1.98,3.839,2.979c1.916,1.501,3.791,3.065,5.776,4.723      c2.707,2.26,5.507,4.597,8.487,6.817c2.728,2.032,5.496,3.861,8.173,5.63c2.399,1.586,4.665,3.083,6.814,4.661      c2.876,2.113,5.753,4.304,8.535,6.423c1.889,1.438,3.781,2.88,5.703,4.321c1.768,1.325,3.879,2,6.001,2      c1.638,0,3.283-0.402,4.78-1.217c3.437-1.871,5.467-5.575,5.194-9.479c-0.177-2.541-0.382-5.058-0.588-7.572      c-0.298-3.659-0.58-7.115-0.78-10.668c-0.219-3.925-0.371-7.974-0.519-11.89c-0.082-2.184-0.165-4.367-0.258-6.547l-0.15-3.505      c-0.212-4.906-0.432-9.979-0.578-14.938c-0.076-2.563-0.182-5.125-0.287-7.688c-0.146-3.548-0.298-7.216-0.355-10.763      c-0.049-2.927,0.106-5.938,0.271-9.125c0.156-3.015,0.318-6.132,0.308-9.331c-0.017-5.082,0.039-10.271,0.093-15.291      l0.033-3.156c0.03-3.185-0.1-6.289-0.225-9.292c-0.135-3.201-0.261-6.225-0.191-9.187c0.07-3.364,0.18-6.731,0.29-10.104      c0.086-2.656,0.173-5.315,0.241-7.978c0.069-2.711,0.118-5.425,0.167-8.142c0.06-3.313,0.12-6.631,0.218-9.95      c0.102-3.412,0.231-6.827,0.361-10.244c0.1-2.615,0.199-5.232,0.286-7.853c0.093-2.798,0.161-5.596,0.229-8.396      c0.079-3.233,0.158-6.469,0.275-9.705c0.106-2.956,0.289-5.888,0.482-8.992c0.184-2.963,0.374-6.026,0.491-9.098      c0.114-2.95,0.195-5.9,0.277-8.849c0.086-3.089,0.171-6.177,0.295-9.263c0.111-2.795,0.366-5.623,0.636-8.616      c0.275-3.063,0.561-6.229,0.693-9.468c0.13-3.152,0.27-6.302,0.409-9.449c0.128-2.895,0.256-5.787,0.376-8.673      c0.006-0.139,0.009-0.277,0.009-0.416v-2.213c-0.001-4.793-0.003-9.563,0.04-14.31      C239.465,206.317,239.273,203.286,239.089,200.354z M219.397,223.8v2.001c-0.117,2.8-0.241,5.604-0.365,8.412      c-0.141,3.167-0.281,6.339-0.411,9.511c-0.113,2.752-0.364,5.543-0.631,8.498c-0.279,3.105-0.568,6.316-0.7,9.608      c-0.127,3.167-0.215,6.337-0.303,9.51c-0.08,2.877-0.159,5.756-0.271,8.637c-0.107,2.835-0.282,5.646-0.468,8.622      c-0.192,3.096-0.392,6.297-0.507,9.51c-0.121,3.313-0.202,6.627-0.283,9.94c-0.066,2.742-0.134,5.483-0.224,8.222      c-0.086,2.586-0.185,5.171-0.283,7.754c-0.132,3.474-0.264,6.944-0.366,10.412c-0.102,3.396-0.163,6.791-0.225,10.182      c-0.048,2.666-0.096,5.33-0.164,7.991c-0.066,2.615-0.152,5.228-0.236,7.838c-0.112,3.45-0.225,6.896-0.296,10.312      c-0.084,3.59,0.063,7.086,0.203,10.467c0.121,2.875,0.234,5.591,0.208,8.256l-0.032,3.142      c-0.055,5.088-0.111,10.349-0.094,15.571c0.009,2.648-0.132,5.359-0.28,8.23c-0.176,3.383-0.356,6.881-0.297,10.49      c0.063,3.792,0.219,7.587,0.37,11.256c0.103,2.484,0.205,4.969,0.279,7.454c0.15,5.096,0.373,10.237,0.588,15.21l0.149,3.495      c0.093,2.148,0.173,4.297,0.254,6.445c0.111,2.946,0.225,5.966,0.368,8.993c-1.513-1.039-3.021-2.035-4.498-3.012      c-2.558-1.689-4.973-3.285-7.248-4.98c-2.539-1.892-5.008-3.953-7.622-6.135c-2.015-1.682-4.099-3.421-6.26-5.113      c-1.309-1.026-2.626-2.043-3.942-3.061c-3.477-2.687-6.761-5.225-9.928-7.919c-3.89-3.312-8.011-7.059-12.971-11.794      c-0.42-0.4-0.875-0.765-1.358-1.087c-1.29-0.86-2.716-1.918-4.225-3.038c-1.446-1.073-2.936-2.179-4.438-3.205      c-3.728-3.348-7.421-7.045-10.998-10.626l-1.097-1.098c-1.373-1.373-2.707-2.761-4.036-4.145      c-2.82-2.935-5.737-5.969-9.027-8.893c-2.943-2.617-7.148-3.263-10.74-1.648c-3.592,1.613-5.903,5.185-5.903,9.122      c0,5.393,0.572,10.521,1.126,15.479c0.239,2.145,0.465,4.17,0.648,6.22c0.32,3.595,0.527,6.842,0.621,9.827      c-2.494-0.173-5.037-0.337-7.555-0.426c-3.145-0.11-6.235-0.086-9.223-0.061c-2.864,0.024-5.563,0.047-8.236-0.044      c-2.656-0.09-5.345-0.305-8.191-0.532c-2.983-0.237-6.067-0.484-9.226-0.588c-2.804-0.091-5.608-0.2-8.413-0.309      c-3.005-0.117-6.012-0.233-9.02-0.33c-2.787-0.089-5.664-0.23-8.446-0.368c-2.927-0.145-5.953-0.294-8.979-0.389      c-3.112-0.097-6.181-0.071-9.149-0.044c-2.879,0.025-5.6,0.05-8.297-0.033c-3.069-0.095-6.111-0.094-9.053-0.088      c-2.908,0.002-5.649,0.007-8.394-0.078c-2.602-0.08-5.272-0.324-8.1-0.583c-3-0.275-6.103-0.56-9.311-0.657      c-3.18-0.1-6.275-0.02-9.268,0.056c-2.855,0.072-5.552,0.14-8.181,0.059c-2.704-0.084-5.431-0.286-8.318-0.5      c-2.944-0.219-5.989-0.444-9.091-0.543c-2.913-0.093-5.824-0.229-8.734-0.363c-2.893-0.135-5.786-0.269-8.683-0.364      c-2.988-0.097-5.968-0.124-8.85-0.15c-2.964-0.027-5.764-0.054-8.582-0.148c-2.785-0.094-5.563-0.277-8.503-0.471      c-2.89-0.189-5.877-0.386-8.895-0.493c-2.995-0.105-5.971-0.131-8.849-0.156c-2.639-0.022-5.147-0.044-7.647-0.122      c-4.517-1.063-8.684-2.7-12.396-4.874c-4.151-2.43-7.848-5.457-10.989-8.997c-3.645-4.107-6.144-7.924-7.638-11.665      c-1.72-4.308-2.629-8.941-2.629-13.402c0-3.629-0.076-7.299-0.149-10.848c-0.042-2.009-0.083-4.022-0.111-6.04      c-0.041-2.952-0.05-5.914-0.059-8.88c-0.008-2.612-0.016-5.229-0.044-7.844c-0.029-2.645,0.142-5.391,0.323-8.297      c0.166-2.667,0.338-5.424,0.361-8.263l0.021-2.902c0.031-4.667,0.06-9.076,0.259-13.465c0.002-0.059,0.005-0.117,0.006-0.176      c0.089-3.216,0.015-6.358-0.057-9.397c-0.07-2.97-0.136-5.775-0.054-8.521c0.086-2.88,0.266-5.751,0.456-8.791      c0.185-2.957,0.376-6.015,0.475-9.101c0.092-2.853,0.286-5.706,0.491-8.728c0.202-2.974,0.411-6.049,0.517-9.161      c0.111-3.257,0.035-6.426-0.038-9.491c-0.071-2.945-0.137-5.728-0.041-8.435c0.118-3.311,0.25-6.621,0.38-9.931      c0.105-2.657,0.21-5.314,0.309-7.971c0.106-2.857,0.302-5.706,0.51-8.721c0.205-2.979,0.417-6.06,0.536-9.168      c0.117-3.037,0.176-6.078,0.234-9.02c0.057-2.931,0.116-5.962,0.232-8.892c0.113-2.871,0.305-5.723,0.507-8.744      c0.2-2.975,0.406-6.051,0.531-9.147c0.126-3.116,0.16-6.213,0.192-9.209c0.033-3.014,0.063-5.861,0.181-8.713      c0.116-2.829,0.323-5.653,0.541-8.642c0.22-3.004,0.447-6.111,0.577-9.251c0.133-3.229,0.104-6.391,0.077-9.45      c-0.027-2.955-0.052-5.745,0.062-8.486c0.11-2.627,0.417-5.349,0.741-8.229c0.35-3.105,0.711-6.316,0.851-9.66      c0.006-0.139,0.009-0.277,0.009-0.416c0-1.619-0.036-3.24-0.073-4.861c-0.09-3.976-0.176-7.739,0.352-11.175      c1.117-4.417,3.471-8.553,7.387-12.986c4.227-4.786,8.39-8.146,12.727-10.273c4.197-2.058,9.229-3.509,15.779-4.547      c2.584,0.072,5.227,0.188,7.792,0.3c2.964,0.129,6.029,0.264,9.096,0.337c3.193,0.079,6.328,0.014,9.36-0.048      c2.932-0.059,5.701-0.116,8.438-0.051c3.043,0.073,6.086,0.125,9.13,0.178c2.887,0.05,5.774,0.1,8.662,0.167      c2.791,0.065,5.582,0.225,8.537,0.393c3,0.171,6.103,0.348,9.242,0.42c2.895,0.066,5.788,0.159,8.682,0.252      c3.035,0.097,6.069,0.194,9.104,0.263c3.256,0.073,6.424-0.032,9.49-0.134c2.9-0.097,5.64-0.188,8.319-0.129      c2.782,0.061,5.564,0.215,8.509,0.378c3.01,0.167,6.124,0.339,9.273,0.406c2.804,0.059,5.593,0.196,8.547,0.341      c3.005,0.147,6.111,0.3,9.241,0.363c3.206,0.064,6.355-0.01,9.402-0.083c2.92-0.07,5.682-0.135,8.405-0.084      c2.813,0.054,5.6,0.168,8.549,0.29c3.011,0.124,6.124,0.252,9.244,0.308c3.124,0.055,6.238,0.034,9.25,0.014      c2.953-0.021,5.745-0.04,8.554,0.007c2.623,0.044,5.246,0.095,7.869,0.146c3.311,0.064,6.621,0.129,9.932,0.179      c2.673,0.041,5.346,0.09,8.019,0.14c3.261,0.061,6.522,0.122,9.781,0.166c2.738,0.038,5.501,0.183,8.427,0.337      c3.059,0.161,6.221,0.327,9.422,0.365c0.729,0.011,1.486-0.064,2.216-0.221c5.784-1.239,11.672-1.729,18.003-1.494l1.537,0.059      c6.483,0.252,13.18,0.512,20.539-0.943c4.742,0.307,9.916,1.585,15.43,3.812c1.248,1.005,2.699,1.98,4.236,2.845      c1.621,1.477,3.193,2.638,4.613,3.686c0.547,0.404,1.064,0.786,1.551,1.161c0.493,1.649,1.344,3.13,2.547,4.43      c2.375,2.755,4.082,5.965,5.075,9.543c0.928,3.339,1.166,7.162,1.215,10.916c-0.238,1.248-0.241,2.55,0.017,3.84      c0.868,4.34,1.291,8.574,1.292,12.946c0.001,2.497-0.023,4.993-0.048,7.489c-0.024,2.513-0.049,5.026-0.049,7.541      c0,0.238,0.009,0.476,0.025,0.713c0.208,2.914,0.207,5.906,0.206,9.074c-0.001,2.323-0.003,4.726,0.083,7.162      c0.211,6.076,0.375,11.137,0.421,16.332c0.038,4.272,0.008,8.65-0.022,12.883l-0.023,3.569c-0.018,3.071,0.168,6.024,0.349,8.88      c0.17,2.699,0.33,5.248,0.309,7.698C219.396,214.116,219.396,218.945,219.397,223.8z"/><g><path d="M134.922,193.094c-4.466-3.722-9.209-6.898-14.198-9.634c-5.033-2.759-10.411-4.701-15.79-6.707       c-5.371-2.003-10.609-4.471-16.139-5.973c-5.569-1.513-11.37-2.382-16.909-3.641c4,0,0.369,1.86,1.369,2.86       c0,0.707-2.048,1.254-1.361,1.426c5,0,9.257,2.187,13.257,3.187c5.108,2.554,9.876,5.843,14.984,8.664       c4.892,2.701,9.835,5.45,14.727,8.874c0.822,0.757,0.409,0.972,1.282,1.671c4,2,7.249,4.948,11.249,4.948       c-5.572-2.675-11.806-4.568-17.602-6.846c-5.768-2.266-11.611-4.293-17.551-6.117c-5.936-1.822-11.883-3.532-17.941-4.862       c-6.071-1.333-12.113-2.834-18.259-3.625c-6.168-0.793-12.385-1.012-18.577-1.209c-6.212-0.198-12.427-0.325-18.613,0.127       s-12.293,1.593-18.402,2.746c-6.074,1.146-12.135,2.439-18.084,4.327c-5.864,1.861-11.745,3.863-17.441,6.492       c-6,2-11.986,2.091-17.986,4.091c1,1,1.73,1.772,2.73,1.772c3-4,6.574-4.426,10.574-7.426c0-1-0.07-1.422,0.882-2.058       c4.902-2.941,9.678-5.895,14.758-8.086c5.201-2.243,10.463-4.288,15.777-5.967c5.38-1.701,11.129-2.389,16.548-3.743       c-1-1-3.789-0.177-4.789-2.177c2,0,3.541-2.355,5.541-1.355c-6.249,0.25-12.523,0.679-18.726,1.741       c-6.172,1.057-12.35,2.466-18.382,4.205c-6.042,1.74-11.926,4.067-17.735,6.367c-5.882,2.328-11.85,4.833-17.399,7.608       c-1.666,6.329-3.765,12.597-6.17,18.63c-2.411,6.045-5.29,11.903-7.7,17.948c-2.405,6.033-3.96,12.377-5.625,18.707       c-1.492,5.47-3.484,10.871-5.101,16.34c-1.635,5.53-2.92,11.101-3.926,16.631c-0.996,7.47-1.949,14.721-2.824,21.943       c-0.881,7.279-2.112,14.546-1.61,22.075c0.196,0.981,1.033,0.266,2.033,0.266c5,4,9.417,9.395,15.417,12.395       c0.91,0.649-0.092,1.606,0.784,2.301c4.109,2.055,8.131,4.325,12.255,6.622c3.904,2.175,7.852,4.571,12.715,5.544       c9,2,17.188,3.187,25.188,4.187c4-6,9.699-11.228,9.699-19.228c-8-1-13.919-7.017-20.919-11.017c-3-2-3.744-5.304-6.744-7.304       c-1-2-3.564-2.688-4.564-4.688c0-1,0.71-1.174,0.263-2.068c-1-1-0.974,0.031-0.974,1.031c1,0,3.138-0.186,4.138-0.186       c1,1,0.368,2.147,1.722,3.354c5.658,3.937,11.912,6.546,17.904,9.284c6.153,2.813,12.267,5.521,18.708,7.357       c6.433,1.834,12.965,3.449,19.621,4.599c6.569,1.134,13.24,2.132,19.964,2.879c7.535,0.502,14.84-0.029,22.123-0.536       c7.217-0.503,14.445-1.348,21.91-2.841c5-1,9.937-4.382,14.937-5.382c1,0,2.063-1.16,3.063-1.16s2.083-0.21,3.083-0.21       c8-3,13.78-9.048,21.78-10.048c-2.661,4.657-6.202,8.174-10.304,11.393c-4.099,3.217-8.639,5.894-13.514,7.894       c-4.908,2.014-10.085,3.51-15.106,4.514c5,6,7.055,14.018,14.055,18.018c5.457,0,10.781-1.061,16.091-2.154       c5.311-1.095,10.663-2.117,15.693-4.207c4.993-2.074,9.863-4.586,14.451-7.544c4.54-2.928,8.624-6.558,12.642-10.256       c3.974-3.659,7.723-7.552,11.063-11.874c-0.568-6.105-0.863-12.205-1.731-18.235c-0.871-6.06-2.521-11.98-3.649-17.976       c-1.131-6.01-2.213-12.018-3.553-17.975c-1.344-5.962-3.156-11.802-4.662-17.723c-1.507-5.92-2.351-12.016-3.974-17.907       c-1.623-5.889-3.234-11.786-4.928-17.658c-1.693-5.87-4.118-11.521-5.835-17.385       C134.583,193.065,134.922,193.094,134.922,193.094z M-6.009,295.122c-6.894-0.492-13.126-4.197-17.372-9.323       c-4.375-5.282-7.126-12.255-6.111-18.854c0.504-7.056,5.748-13.281,11.948-17.528c6.102-4.18,13.663-6.57,20.607-4.586       c1,1,3.104,1.977,5.104,2.977c6,6,8.393,13.208,10.393,21.208c-1.495,5.979-3.986,11.979-8.338,16.595       c-4.382,4.649-10.305,7.502-16.326,9.007C-6.163,294.633-6.009,295.122-6.009,295.122z M74,300.122       c-7.468,0-13.523-3.779-17.771-9.116c-4.284-5.385-7.219-12.536-7.721-19.064c2.004-6.011,6.453-10.952,11.341-14.703       c4.87-3.738,10.654-6.418,17.143-6.418c6.293-0.524,11.152,3.111,14.723,8.241c3.237,4.652,4.943,10.704,6.846,15.935       c-2.015,5.541-4.296,11.616-8.468,16.258c-4.111,4.574-9.708,7.363-16.16,8.355C73.872,299.619,74,300.122,74,300.122z"/></g></g></g></g><g id="Layer_1_1_"/></g></svg>