<svg xmlns="http://www.w3.org/2000/svg" viewBox="0 0 256 256" focusable="false" color="var(--token-362904ab-0996-4df9-a0d3-a1c1b0d1e6bb, rgb(208, 209, 214)) /* {&quot;name&quot;:&quot;Neutral/100&quot;} */" style="user-select: none; width: 100%; height: 100%; display: inline-block; fill: var(--token-362904ab-0996-4df9-a0d3-a1c1b0d1e6bb, rgb(208, 209, 214)); color: var(--token-362904ab-0996-4df9-a0d3-a1c1b0d1e6bb, rgb(208, 209, 214)); flex-shrink: 0;"><g color="var(--token-362904ab-0996-4df9-a0d3-a1c1b0d1e6bb, rgb(208, 209, 214)) /* {&quot;name&quot;:&quot;Neutral/100&quot;} */" weight="regular"><path d="M216,24H40A16,16,0,0,0,24,40V216a16,16,0,0,0,16,16H216a16,16,0,0,0,16-16V40A16,16,0,0,0,216,24Zm0,192H40V40H216V216ZM96,112v64a8,8,0,0,1-16,0V112a8,8,0,0,1,16,0Zm88,28v36a8,8,0,0,1-16,0V140a20,20,0,0,0-40,0v36a8,8,0,0,1-16,0V112a8,8,0,0,1,15.79-1.78A36,36,0,0,1,184,140ZM100,84A12,12,0,1,1,88,72,12,12,0,0,1,100,84Z"></path></g></svg>