<svg width="24" height="23" viewBox="0 0 24 23" fill="none" xmlns="http://www.w3.org/2000/svg"><g clip-path="url(#clip0_223_982)"><path d="M12.0006 9.01663L14.2522 6.76503C15.4957 5.51642 15.4957 3.50021 14.2522 2.2516L12.0006 0L9.74384 2.25672C9.11954 2.88102 8.8125 3.69467 8.8125 4.51343C8.8125 5.3322 9.12465 6.14584 9.74384 6.76503L12.0006 9.02175V9.01663Z" fill="#0AF2AD"></path><path d="M12.1996 22.0246L12 21.8916L0 13.8779C0.629424 15.4694 1.59147 16.9534 2.87591 18.243C5.3936 20.7607 8.69936 22.0246 12 22.0349C15.3211 22.04 18.6422 20.776 21.1753 18.243C22.4239 16.9943 23.3655 15.5513 24 14.011L12.1996 22.0297V22.0246Z" fill="#0AF2AD"></path><path d="M12.0029 18.0589C13.7786 18.0589 15.5492 17.3834 16.9053 16.0273C19.6123 13.3203 19.6123 8.92969 16.9053 6.22777L12.0029 11.1301L7.10059 6.22266C4.39355 8.92969 4.39355 13.3203 7.10059 16.0222C8.45667 17.3783 10.2272 18.0538 12.0029 18.0538V18.0589Z" fill="#0AF2AD"></path></g><defs><clipPath id="clip0_223_982"><rect width="24" height="22.0299" fill="white"></rect></clipPath></defs></svg>