<svg width="470" height="444" viewBox="0 0 470 444" fill="none" xmlns="http://www.w3.org/2000/svg"><path fill-rule="evenodd" clip-rule="evenodd" d="M232.479 42.2814L230.45 35.5164V30.1607L234.452 27.4547L235.805 23.4521L231.803 19.4494L225.094 12.7408L219.738 10.0348L223.741 6.03214C223.741 6.03214 225.714 5.41201 227.744 2.706C229.717 -9.14417e-06 231.07 1.353 231.07 1.353L234.396 2.706L239.752 1.353L243.134 0.676494L250.519 -9.14417e-06H258.525L265.91 2.0295L268.559 3.3825L271.886 2.706L274.592 6.03214L276.621 8.06165L277.298 12.0643L279.327 13.4173L282.653 14.0938L286.656 18.0964V20.1259H288.629V22.7756L283.95 23.4521H279.947L285.303 26.1581L289.982 27.5111L293.985 28.8641V31.5137L295.338 33.5433L296.014 36.8694L293.985 40.2519L292.012 42.9015C292.012 42.9015 289.362 42.225 287.332 43.578C285.359 44.9311 283.33 43.578 283.33 43.578L281.977 46.2277L279.947 45.5512L279.271 48.2572L275.945 50.2867L273.295 50.9632L267.939 50.2867L265.91 54.2893L265.233 57.6719V64.3805L261.231 69.0597L259.257 69.7362V72.3858L255.875 73.7388L251.196 76.3884L248.49 75.7119V73.6824L239.808 71.0328L240.485 68.3831L236.482 66.3536L237.158 63.0275L235.129 61.6745V56.3188L232.479 54.9658V51.6397L233.156 48.9901L231.126 46.9606L232.479 44.3109V42.2814ZM3.59094 187.841L5.56407 182.824H5.5077L3.53456 179.836H0.546675L1.56143 174.818C65.7728 -9.92342 214.773 1.23888 214.773 1.23888L211.728 2.25363L210.714 6.25627H207.726L204.681 9.24416L201.693 13.2468H195.661L190.644 12.232L188.671 16.2347L182.639 12.232L175.592 13.2468L172.548 17.2494L175.592 20.2373L179.594 21.2521L182.582 18.2642L189.629 19.279L191.659 24.2963L196.676 23.2816L195.661 26.2695L204.681 31.2869L201.693 29.3137H207.726V41.378L205.696 46.3954L201.693 43.4076L196.676 46.3954L195.661 50.3981L196.676 53.386L191.659 54.4007L193.688 58.4034L190.7 63.4208L185.683 57.3886V60.3765L184.668 63.3644L181.68 60.3765L179.651 57.3886L176.663 55.3591L174.633 52.3712L170.631 49.3833H174.633L178.636 47.3538L172.604 42.3364H179.651L173.619 35.2895L168.601 36.3043L164.599 42.3364L161.611 41.3217L162.625 45.3243H157.608L158.623 49.327L160.652 56.3739L159.638 59.3617L151.632 60.3765L149.603 64.3791L144.585 59.3617L140.583 57.3322L143.571 53.3296V49.327L138.553 52.3148H134.551L131.563 58.347L127.56 61.3349L126.545 53.2732L122.543 59.3054L118.54 64.3228L113.523 65.3375L111.549 68.3254L110.535 73.3428L112.564 77.3455L120.57 86.3655V89.4098L125.587 92.3976L124.572 96.4003V99.3882H127.552L127.551 99.3925L121.528 102.376L122.543 107.393L126.545 106.379L127.551 99.3925L127.56 99.3882H127.552L127.56 99.3318L131.563 96.3439L135.565 93.2996V90.3118L140.583 89.297V86.2527L148.588 82.2501V73.23L149.603 70.2422L155.635 68.2127L156.65 65.2248V61.2221L163.697 64.21L162.682 61.2221L165.67 60.2074L169.672 61.2221L173.675 64.21L177.678 71.2569L180.666 78.3038L183.653 76.2743L188.671 75.2596L195.718 77.2891V84.336L196.732 91.3829L201.75 96.4003L204.738 99.3882L207.782 101.418L211.785 102.432L208.797 106.435V110.438L206.767 115.455V118.443L211.785 123.46L213.814 126.448V129.436L214.829 132.424L213.814 136.427L210.826 137.441L207.838 138.456V134.454L203.836 137.441L199.833 132.424L197.804 129.436H191.771L193.801 123.404L197.804 119.401L203.836 116.413L200.848 112.411L195.83 116.413L190.813 118.387L187.825 114.384L184.837 118.387L177.79 120.416L173.788 124.419L171.758 121.431L170.743 124.419L166.741 128.421V132.424L170.743 135.468H173.731L174.746 138.456L172.717 143.474L169.729 145.503L166.741 148.491L163.753 144.488L162.738 140.486L159.75 142.515L155.748 146.518H151.745L150.73 141.5L146.728 144.488L142.725 148.491L137.708 150.521L136.693 153.508V156.496L133.705 159.484L129.702 158.469L125.7 161.457H122.712L119.724 159.428L116.68 161.457L114.65 164.445L115.665 168.448L109.633 171.436L108.618 175.438L105.63 184.458L100.613 185.473L97.6248 190.491L91.5927 192.52H88.6048L84.6021 196.523L83.5874 199.511L82.5726 202.498L80.5995 207.516L79.5848 213.548L80.5995 217.551V222.568L78.57 227.585L73.5526 233.618V230.63L67.5204 227.585L71.5231 223.583V219.58L73.5526 216.592L70.5083 214.619L66.5057 210.617L63.5178 207.629C63.5178 207.629 63.5178 205.599 59.5152 205.599L53.483 208.643V212.646L47.4509 210.617L48.4656 207.629L43.4482 210.617L37.4161 207.629L33.4134 208.643V211.631L28.396 214.619L26.4229 221.666L25.4082 228.713L24.3934 235.76V238.748L23.3786 243.765L28.396 246.753V249.741L31.3839 252.785L34.4282 255.773L41.4751 256.788L40.4603 252.785L44.463 248.783L49.4804 247.768L54.4978 250.756L52.4683 255.773L51.4535 262.82V266.823L56.4709 268.852L59.4588 269.867L62.4467 273.87H67.4641L69.4936 276.857V280.86L66.5057 282.89L67.5204 287.907L68.5352 293.939L71.5231 299.971L75.5257 302.001L80.5431 303.016V300.028L83.531 301.042L87.5337 304.03H90.5779L95.5953 300.028V297.04H103.601L105.63 293.996L114.65 296.025L116.68 293.037L120.682 295.067L122.712 298.055L125.7 299.069L130.717 300.084L133.705 304.087L134.72 308.089L137.708 306.06L141.71 304.03L144.698 303.016H147.686L150.674 307.018L158.679 308.033L161.667 313.05L166.684 316.038L168.658 319.082L172.66 323.085L175.705 325.058L178.692 327.088L184.725 326.073L190.757 328.103L193.745 330.132L200.791 335.149L205.809 338.137L207.838 342.14L205.809 345.128L209.812 346.143V349.13L199.777 351.16L204.794 353.189L210.826 354.204H215.844L219.846 356.234L223.849 354.204L226.893 358.207L227.908 361.195L231.911 360.18L234.898 361.195H238.901L241.945 362.21V368.242L246.963 366.212L250.965 364.183H254.01L258.012 367.171L260.042 372.188L267.089 371.173L270.077 373.203L274.079 374.217L272.05 379.235L273.065 385.267C273.065 385.267 272.05 386.282 269.062 385.267C266.074 384.252 266.074 386.282 266.074 386.282L264.101 392.314L265.116 397.331L258.069 398.346L255.081 400.376L256.096 403.363L249.105 407.366L246.061 410.354L251.078 411.369V414.357L248.09 419.374L247.076 425.406L243.073 429.409L238.056 432.397L232.023 433.411L228.979 431.382L225.991 430.367C225.991 430.367 223.962 436.399 220.974 434.37C217.986 432.34 216.971 437.358 216.971 437.358L220.015 440.346L217.986 444.348L215.956 448.351L211.954 454.383H208.966L205.978 458.386L199.946 462.388L195.943 466.391L196.958 471.408L193.97 470.394L186.923 469.379L182.921 468.364L180.891 465.376L177.903 461.374L175.874 457.371L169.841 455.341L166.854 447.336L164.824 450.324L161.836 447.336C161.836 447.336 160.821 446.378 160.821 443.333C160.821 440.289 158.792 440.289 158.792 440.289L155.804 435.272L151.801 430.254L150.787 425.237L149.772 421.234L143.74 417.232L140.752 414.244V411.256L134.72 408.268H131.732L127.729 407.253L125.7 404.265L122.712 405.28L119.724 402.292L118.709 399.304L114.707 395.302V392.314L109.689 391.299L107.66 388.311L102.642 381.264L99.6543 378.276L97.6248 375.289L89.6195 371.286L90.6343 366.268L86.6317 359.222C86.6317 359.222 88.6612 359.222 88.6612 356.234C88.6612 353.246 85.6733 356.234 85.6733 356.234L84.6585 352.231L82.629 345.184V342.196L85.6733 340.167L84.6585 337.179L90.6907 340.167L91.7054 337.179V333.176L92.7202 330.188L88.7175 327.201V324.213L87.7028 320.21L86.688 316.207L83.7001 311.19L80.7123 314.178L75.6949 312.205L71.6922 313.219H68.7043C68.7043 313.219 64.6453 310.175 66.6748 307.187C68.7043 304.143 63.6869 305.158 63.6869 305.158L61.6574 302.17L57.6548 300.14C53.6521 298.111 54.6669 298.111 54.6669 298.111V294.108L51.679 290.106V287.118L47.6764 286.103L43.6737 283.115L38.6563 279.112L33.6389 277.083V273.08L30.651 272.066L26.6484 273.08H22.6458L20.6163 270.092L19.6015 267.048L15.5989 264.06V260.058L12.611 257.07L10.5815 253.067L7.59358 250.023L8.60833 245.005L7.59358 241.003V227.924L1.56143 233.956L2.57618 228.938V225.951C2.57618 225.951 2.57618 220.877 0.546675 217.889C-1.42646 214.901 2.57618 214.901 2.57618 214.901L1.56143 209.884L2.57618 205.881L1.56143 202.893V198.89L2.57618 194.888L3.59094 187.841ZM344.896 204.924L341.908 206.897L340.893 209.885L337.905 210.9L338.92 213.944L340.95 219.976L337.962 222.006V224.993L333.959 226.008L329.956 227.023L324.939 231.026L323.924 237.058L318.907 239.031L315.919 244.048L312.875 246.078L309.887 251.095L308.872 256.113L309.887 260.115V263.159L311.916 269.192V276.239H307.914L310.902 280.241V287.288H307.914L304.926 291.291L305.941 295.293L308.928 300.311L314.961 304.313L315.975 310.346L319.978 315.363L322.966 322.41L325.954 324.439L328.942 327.427L332.944 331.43L335.932 334.418C339.935 337.406 340.95 337.406 340.95 337.406L346.982 335.433L350.984 333.403L353.972 336.391L358.99 335.376L364.007 338.364L369.024 333.347L373.027 332.332L377.03 328.329L382.047 327.315L385.035 332.332L390.052 333.347L393.04 335.376H396.028L398.001 342.423L396.028 346.426L393.999 351.443L392.984 355.446L393.999 358.434L390.954 364.466L393.999 367.454L390.954 370.442L389.94 375.459V381.491L386.952 384.479V389.496L385.937 392.484L382.949 397.502H377.932L371.9 400.49L368.855 405.507L364.853 410.524L365.867 416.556L359.835 421.574L361.865 426.591L357.862 428.621L355.833 431.665L351.83 433.695L346.813 435.668L344.783 439.67L340.78 442.658L335.763 445.646L332.775 452.693C332.775 452.693 521.519 366.326 456.293 159.542L454.264 155.539L448.232 154.524L443.214 157.569L444.229 161.571L443.214 164.559V168.562L440.226 172.564H444.229L443.214 176.567L447.217 182.599L448.232 186.602L451.219 185.587H454.207L456.237 190.605L458.266 195.622L461.254 200.639L459.225 203.627V206.615H455.222L456.237 210.618L449.19 209.603L450.205 205.6L447.16 204.586L443.158 203.571V199.568L440.17 202.556H437.126V209.603L431.094 208.588L428.106 207.574L425.061 206.559L420.044 204.586L412.997 203.571L415.027 200.583L412.997 197.595L415.027 193.592L412.997 188.575H410.009V184.572H399.974L398.96 187.56L394.957 188.575L390.954 187.56L386.952 185.531L385.937 188.519L378.89 190.548L375.846 192.578L372.858 190.548L369.87 192.578L366.882 194.551L362.88 195.566L358.877 194.551C358.877 194.551 358.877 192.578 355.889 194.551C352.901 196.58 351.886 198.553 351.886 198.553L346.869 200.583L344.839 204.586L344.896 204.924ZM353.898 132.651L354.913 136.654L359.93 142.686L360.945 146.688L361.959 151.706L364.947 152.721L359.93 155.708L350.91 153.679H347.922L344.934 150.691L338.902 154.694L335.914 156.723L338.902 162.755L339.917 167.773L338.902 171.775L339.917 176.793V180.795L344.934 182.825C344.934 182.825 343.919 184.798 346.964 185.813C350.008 186.828 350.008 187.842 350.008 187.842L351.023 184.854L353.052 187.842H358.07L361.057 188.857L365.06 185.869L369.063 182.881L373.065 183.896L375.095 179.893L376.11 176.849L375.095 172.846L374.08 169.859V165.856L380.112 164.841L383.1 162.812V154.806H387.103L392.12 153.792L396.123 150.804L399.111 154.806L401.14 157.851L404.128 158.865L409.146 162.868L413.148 163.883L420.195 169.915L417.207 170.93L419.18 176.962L420.195 180.006L423.239 178.991V172.959L428.257 168.957L425.212 163.939L421.21 160.951H417.207L415.178 156.949L412.19 155.934L410.16 151.931H406.158L405.143 147.929H402.155L404.184 142.911L408.187 145.956L412.19 146.97L416.192 149.958L418.222 153.961H421.21L424.198 161.008L428.2 162.022L433.218 165.01L432.203 172.057L433.218 175.045L436.206 172.057L434.176 168.055L438.179 161.008L443.196 158.02L441.167 154.976L438.179 150.973C435.191 152.946 433.161 153.961 433.161 153.961L432.147 150.973L434.176 147.929V143.926L437.164 145.956L440.208 144.941L444.211 146.97H450.243C450.243 146.97 429.159 74.6972 361.903 39.5191H353.841L350.853 35.5164L344.821 31.5138L340.819 30.499V33.4869L336.816 37.4896L339.804 40.5338L336.816 43.5217L340.819 47.5243L344.821 46.5096V51.527L347.809 55.5296L346.794 58.5175L349.839 62.5202L346.794 63.5349L347.809 67.5376L348.824 73.5697L353.841 80.6166L356.829 83.6045L360.832 82.5897L363.82 84.6192H367.822L371.825 87.6071L373.855 90.595L376.842 91.6098L379.83 94.654L382.818 91.6098L380.789 86.5924L381.804 82.5897L378.816 78.5871L379.83 74.5845H376.842L373.855 71.5966L370.867 68.6087L367.879 62.5765H371.881L374.869 65.5644L375.884 68.5523L379.887 70.5818L383.889 71.5966H387.892L390.88 72.6113L395.897 73.6261L392.909 75.5992L391.895 78.5871V81.575L394.883 82.5897L396.856 87.6071V92.6245L398.885 95.6124L394.883 100.63H391.895L388.907 99.6151L385.862 102.603L383.889 99.6151L374.869 96.6272L370.867 97.6419L371.881 102.659L368.837 106.662V109.65L367.822 112.638L369.852 115.626L366.864 116.64L365.849 120.643L360.832 123.687L357.844 122.673L351.812 125.66V128.705L353.785 132.707L353.898 132.651ZM332.877 80.4481L327.859 77.4038V82.4212V87.4386L328.818 90.4829L333.835 92.456L337.556 95.6694L337.669 101.532L336.879 104.689L337.049 107.057L342.912 108.523L341.389 110.045L341.897 111.567L342.912 114.555L343.87 117.599L340.882 119.572L340.544 122.448L340.206 125.774L340.431 126.619L341.897 127.634L342.912 124.59L344.885 121.602L347.929 120.587L350.579 118.727L353.285 116.415L356.949 115.57L357.456 114.555L360.444 112.526L356.949 108.523L355.934 103.506L351.932 97.4734L348.944 96.515L345.899 95.5003L343.87 91.4412L340.882 87.4386L339.867 83.436L335.865 84.4507L332.877 80.4481ZM326.851 98.4861L323.863 101.53L324.371 103.052V104.575L323.863 108.07L324.878 111.058L325.893 113.087L324.878 115.117L328.881 114.102L331.418 115.624L331.925 113.595L334.913 111.565L332.883 111.058L333.391 108.521L333.898 106.04L332.376 103.503L331.869 100.008L329.388 97.9787L326.851 98.4861ZM305.26 53.3336L306.782 55.8141L308.811 57.3362L310.785 58.351L312.307 60.8315L313.829 62.861L315.858 64.8341L317.888 63.312L319.41 62.2972H321.383L323.413 59.7604L325.442 58.2382L325.949 55.2503L324.935 52.7698L321.947 50.2329V52.2625L318.959 49.7819L315.464 49.2746L313.434 47.7524L310.446 50.7403L307.966 49.7256C307.966 49.7256 308.981 51.7551 307.458 51.7551H305.429V53.2772L305.26 53.3336ZM67.1289 245.739L73.8376 247.092L75.1906 251.095L84.5489 253.801L83.1958 259.157L85.9019 264.512L97.9098 261.806L91.2011 259.157L84.5489 253.801L81.8428 248.445L75.1906 251.095L77.8402 245.739H67.1289ZM109.984 265.811L113.987 269.87L117.99 268.517L126.051 272.519L136.763 276.522L139.412 271.166L131.407 267.164H126.051L117.99 268.517L120.696 264.514L109.984 265.811Z" fill="#EFECEA"></path></svg>