<svg width="87" height="40" viewBox="0 0 87 40" fill="none" xmlns="http://www.w3.org/2000/svg"><path d="M57.9866 0C52.7096 0 47.7537 0.976253 43.4922 2.6737C39.2306 0.967458 34.2747 0 28.9977 0C12.9756 0 0 8.95339 0 20C0 31.0466 12.9756 40 28.989 40C34.266 40 39.2219 39.0237 43.4835 37.3263C47.745 39.0325 52.7009 40 57.978 40C73.9913 40 86.9669 31.0466 86.9669 20C86.9669 8.95339 73.9913 0 57.9866 0ZM28.7894 29.0062H20.978C20.2402 26.4996 19.8062 23.6148 19.7542 20.5453L28.772 20.5277V29.0062H28.7894ZM18.7734 20.5453C18.8168 23.5972 19.2421 26.4732 19.9538 29.0237H13.8522C12.5069 26.5172 11.7084 23.6324 11.6216 20.5629H18.7734V20.5453ZM11.6216 19.5427C11.6997 16.4644 12.4896 13.5796 13.8262 11.0642H19.9278C19.216 13.606 18.8081 16.482 18.7734 19.5339H11.613L11.6216 19.5427ZM28.7807 19.5251L19.7628 19.5427C19.7976 16.4732 20.2315 13.5796 20.9606 11.0642H28.772V19.5339L28.7807 19.5251ZM28.7807 10.044H21.2817C21.6723 8.90062 22.1149 7.82762 22.6183 6.86895C24.0852 4.17766 25.9339 1.9701 28.7633 1.59191V10.0352L28.7807 10.044ZM20.518 9.27001C20.4225 9.52507 20.3444 9.79771 20.2576 10.0616H14.4337C16.8466 6.12137 20.6915 3.19261 25.1961 2.07564C23.1999 3.62357 21.6463 6.11258 20.518 9.27001V9.27001ZM21.5768 2.3131C19.5198 3.28936 17.6538 4.6438 16.0828 6.29727C15.0066 7.43184 14.0605 8.69833 13.2707 10.0792H5.88459C9.79029 6.01583 15.7183 3.40369 21.5421 2.30431L21.5768 2.3131ZM4.97326 11.0818H12.7065C11.4394 13.6236 10.6929 16.4996 10.6235 19.5515L1.48417 19.569C1.57964 16.482 2.9423 13.4653 4.97326 11.0818ZM1.48417 20.5717L10.6235 20.5541C10.7016 23.606 11.4567 26.482 12.7326 29.0325H5.00798C2.95965 26.6755 1.597 23.6588 1.49285 20.5717H1.48417ZM5.91931 30.0528H13.2707C15.2062 33.4125 18.1225 36.1478 21.6202 37.7836C15.2756 36.4996 10.1461 34.248 5.91931 30.0528V30.0528ZM14.4337 30.0352H20.2489C20.6742 31.3544 21.1863 32.5858 21.7765 33.6851C22.7485 35.5057 23.8682 36.9569 25.2222 37.9947C20.7176 36.8865 16.8639 33.9754 14.4337 30.0352V30.0352ZM21.4553 30.4749C21.4032 30.3254 21.3598 30.1759 21.3078 30.0264H28.798V38.4697C24.9705 37.81 23.0697 34.5822 21.4553 30.4749V30.4749ZM57.1014 28.971C55.0357 28.971 51.4164 28.971 49.3247 28.9798C48.5869 26.4644 48.153 23.5796 48.1096 20.5101L57.0753 20.4925H57.0927C57.0927 22.7001 57.1014 26.781 57.1014 28.971ZM29.7528 11.0466C30.4037 11.0466 31.2022 11.0466 32.0615 11.0466C33.9449 11.0466 36.106 11.0466 37.5642 11.0466C38.3019 13.562 38.7359 16.4468 38.788 19.5251L29.7701 19.5427C29.7701 18.5224 29.7701 16.9833 29.7701 15.4266C29.7701 13.7907 29.7701 12.1372 29.7701 11.0642L29.7528 11.0466ZM46.9292 19.4987C46.7729 19.4987 39.9423 19.5075 39.7774 19.5075C39.734 16.6227 39.3521 13.7203 38.597 11.029C39.3434 11.029 41.4004 11.029 42.1208 11.029H44.6986C46.0439 13.5444 46.8511 16.4292 46.9292 19.4987ZM45.8182 11.0202C47.8492 11.0202 51.4771 11.0202 53.5428 11.0114C55.5911 13.3861 56.9538 16.4028 57.058 19.4811C56.9017 19.4811 48.0748 19.4987 47.9186 19.4987C47.8492 16.5259 47.1201 13.6324 45.8095 11.0202H45.8182ZM38.9615 20.5189C39.0397 23.4916 39.7514 26.3852 41.0619 28.9974C39.0136 28.9974 35.3857 28.9974 33.3026 29.0062C31.2543 26.6315 29.8916 23.6148 29.7875 20.5365L38.9615 20.5189V20.5189ZM39.951 20.5189H47.1028C47.1462 23.3861 47.528 26.2973 48.2831 28.9798C46.5299 28.9798 43.9348 28.9798 42.1816 28.9886C40.8363 26.4732 40.0378 23.5884 39.951 20.5189V20.5189ZM57.0666 14.8989C56.5198 13.518 55.7474 12.19 54.8187 11.0026H57.058V14.8989H57.0666ZM57.0666 9.9912H53.9942C53.0568 8.94459 51.9892 7.95954 50.7915 7.05365C50.8349 6.97449 50.8696 6.89534 50.913 6.81618C52.3798 4.12489 54.2285 1.91733 57.058 1.53914V9.9912H57.0666ZM49.993 6.45559C49.1858 5.8927 48.3265 5.365 47.4239 4.87247C49.2205 3.54442 51.2688 2.56816 53.4734 2.01407C52.0934 3.07828 50.9651 4.58223 49.9843 6.45559H49.993ZM49.8628 2.25154C48.6477 2.83201 47.502 3.53562 46.4431 4.35356C46.0612 4.16007 45.6793 3.97537 45.2888 3.79947C45.1325 3.72911 44.959 3.66755 44.8027 3.59719C46.4084 3.0431 48.0922 2.58575 49.8628 2.24274V2.25154ZM41.6521 3.47405C45.7488 4.8197 49.585 6.90413 52.6489 9.9912C50.5919 9.9912 47.3631 9.9912 45.2975 10C44.2212 8.14424 42.8586 6.45558 41.2355 5.05717C40.897 4.75814 40.5412 4.47669 40.1853 4.20405C39.1785 3.44767 38.0936 2.78804 36.9393 2.25154C38.5276 2.55937 40.1072 2.96394 41.6435 3.46526L41.6521 3.47405ZM39.2306 4.74934C41.1835 6.13896 42.8672 7.93316 44.1344 10C42.5895 10 39.8902 10 38.3193 10C37.894 8.68953 37.4079 7.51979 36.7917 6.34125C35.8196 4.52067 34.7 3.06069 33.346 2.03166C35.4724 2.55057 37.46 3.48285 39.2219 4.74055L39.2306 4.74934ZM35.9932 6.97449C36.5053 7.97713 36.9306 9.01495 37.2691 10.0088H34.2053C33.9102 10.0088 33.4154 10.0088 32.8686 10.0088C31.7664 10.0088 30.395 10.0088 29.7788 10.0088V1.58311C32.6083 1.94371 34.6219 4.30959 35.9932 6.98329V6.97449ZM29.8048 25.0923C30.1607 25.9807 30.5947 26.8338 31.1154 27.6605C31.4018 28.1091 31.7143 28.5576 32.0441 28.9886H29.8048V25.0923ZM29.8048 30H32.8773C32.9728 30.1055 33.077 30.2111 33.1724 30.3166C34.0317 31.2489 35.0038 32.1284 36.08 32.9376C36.0626 32.9727 36.0453 32.9991 36.0279 33.0343C34.5958 35.752 32.6777 38.0739 29.8135 38.4433V29.9912L29.8048 30ZM33.5196 37.8804C34.7868 36.8602 35.8891 35.4178 36.8177 33.65C36.8351 33.606 36.8611 33.5708 36.8785 33.5268C37.6857 34.0897 38.5449 34.6174 39.4476 35.1099C39.3868 35.1539 39.3174 35.1979 39.2566 35.2507C37.5034 36.5084 35.5245 37.4406 33.3981 37.9683L33.5196 37.8716V37.8804ZM37.0087 37.7397C38.1457 37.2032 39.2132 36.5523 40.2114 35.796C40.2808 35.7432 40.3589 35.6904 40.4284 35.6376C40.9578 35.9015 41.5133 36.1741 42.0687 36.394C41.9386 36.438 41.7997 36.482 41.6608 36.5347C40.1766 37.0273 38.623 37.4318 37.0087 37.7485V37.7397ZM44.8461 36.394H44.8635C44.3861 36.2269 43.9174 36.0598 43.4661 35.8839C40.0551 34.5471 36.8264 32.6297 34.2313 30C36.0453 30 39.7948 30 41.5914 29.9912C42.0861 30.8267 42.9974 32.058 43.4748 32.7001C44.1344 33.5092 44.8635 34.2568 45.6533 34.934C46.9552 36.0598 48.396 37.0009 49.9496 37.7397C48.2137 37.4055 46.5299 36.9569 44.8635 36.4028L44.8461 36.394ZM42.6937 29.9912C44.2386 29.9912 46.9379 29.9912 48.5088 29.9912C48.9341 31.3105 49.4201 32.4714 50.0364 33.65C51.0085 35.4705 52.1281 36.9217 53.4821 37.9595C49.0035 36.8602 45.1152 33.9402 42.6937 30V29.9912ZM49.6024 29.9824H57.1014V38.4257C53.0828 37.8628 50.8783 33.5884 49.6024 29.9824ZM85.37 19.4371L76.2306 19.4547C76.1525 16.4028 75.3974 13.5268 74.1215 10.9763H81.8461C83.8945 13.3333 85.2571 16.3588 85.3613 19.4371H85.37ZM75.2412 20.4573C75.1631 23.5356 74.3732 26.4204 73.0366 28.9358H66.935C67.6467 26.394 68.0547 23.518 68.0894 20.4661H75.2412V20.4573ZM66.909 10.9763H73.0106C74.3559 13.4828 75.1631 16.3676 75.2412 19.4459H68.0894C68.046 16.4028 67.6207 13.5268 66.909 10.9763ZM80.9348 9.94723H73.5834C71.6479 6.58751 68.7317 3.85224 65.2339 2.21636C71.5785 3.50044 76.708 5.75198 80.9348 9.94723ZM72.4204 9.95602H66.6052C66.1799 8.63676 65.6679 7.40545 65.0777 6.30607C64.1056 4.48549 62.9859 3.0343 61.632 1.99648C66.1365 3.10466 69.9902 6.01583 72.4204 9.95602V9.95602ZM58.0387 1.53914C61.8837 2.19877 63.7758 5.42656 65.3988 9.53386C65.4509 9.68338 65.4943 9.83289 65.5463 9.98241H58.0561V1.53914H58.0387ZM58.0387 10.9938H65.8501C66.5879 13.5004 67.0218 16.3852 67.0739 19.4547L58.0561 19.4723V11.0026L58.0387 10.9938ZM58.0387 20.4749L67.0566 20.4573C67.0218 23.5268 66.5879 26.4204 65.8588 28.9358H58.0474V20.4661L58.0387 20.4749ZM58.0387 29.956H65.5377C65.1471 31.0994 64.7045 32.1724 64.1924 33.131C62.7256 35.8223 60.8769 38.0299 58.0474 38.4081V29.956H58.0387ZM66.5618 29.9384H72.3857C69.9728 33.8786 66.1279 36.8074 61.6233 37.9244C63.7671 36.3061 65.5463 33.219 66.5618 29.9384V29.9384ZM65.2426 37.6869C67.2996 36.7106 69.1656 35.3562 70.7366 33.7027C71.8128 32.5682 72.7589 31.3017 73.5487 29.9208H80.9001C76.9857 33.9666 71.0664 36.5787 65.2339 37.6781L65.2426 37.6869ZM81.8114 28.9094H74.0781C75.3453 26.3676 76.0917 23.4916 76.1612 20.4398L85.3005 20.4222C85.205 23.5004 83.8424 26.5259 81.8114 28.9094V28.9094Z" fill="black"></path></svg>