<svg width="69" height="24" viewBox="0 0 69 24" fill="none" xmlns="http://www.w3.org/2000/svg">
<g clip-path="url(#clip0_243_247)">
<path d="M66.7481 1.02802H66.2349V2.37405H65.9783V1.02802H65.4651V0.78418H66.7514V1.02802H66.7481Z" fill="white"/>
<path d="M68.7197 2.37405H68.4631V1.06704L68.0019 2.22124H67.7323L67.2678 1.08005V2.37731H67.0112V0.78418H67.4042L67.8654 1.91888L68.3267 0.78418H68.7197V2.37405Z" fill="white"/>
<path d="M20.5234 23.3874V0.573242H25.8242V23.3874H20.5234Z" fill="white"/>
<path d="M44.9876 6.13867V23.3868H39.8297V20.9288C39.2905 21.8196 38.5825 22.4991 37.7055 22.9674C36.8286 23.4354 35.8412 23.6696 34.7401 23.6696C32.5639 23.6696 30.9431 23.0681 29.8778 21.8619C28.8124 20.6557 28.2798 18.835 28.2798 16.3998V6.13867H33.5805V16.5038C33.5805 17.5345 33.7981 18.2953 34.2301 18.7862C34.6621 19.2771 35.3247 19.5242 36.2114 19.5242C37.241 19.5242 38.0758 19.1731 38.7221 18.4708C39.3653 17.7686 39.6868 16.8419 39.6868 15.6942V6.13867H44.9876Z" fill="white"/>
<path d="M62.1858 6.8092C63.3324 7.53423 64.2256 8.57139 64.8719 9.91742C65.515 11.2634 65.8366 12.8273 65.8366 14.6057C65.8366 16.3874 65.515 17.9611 64.8719 19.3298C64.2288 20.6986 63.3291 21.7651 62.1696 22.5259C61.01 23.2867 59.6946 23.6671 58.22 23.6671C57.028 23.6671 55.9496 23.4167 54.9915 22.9128C54.0333 22.4088 53.296 21.713 52.7796 20.8222V23.3874H47.5503V0.573242H52.851V8.4576C53.3642 7.59276 54.0983 6.91649 55.0434 6.43855C55.9919 5.95736 57.0475 5.72002 58.22 5.72002C59.7173 5.72002 61.0393 6.08091 62.1858 6.8092ZM59.5549 18.3122C60.2338 17.4343 60.5716 16.1989 60.5716 14.6057C60.5716 13.0354 60.2305 11.8356 59.5549 11.0033C58.8761 10.171 57.9179 9.75486 56.6772 9.75486C55.4364 9.75486 54.4783 10.1807 53.7994 11.0358C53.1206 11.8909 52.7828 13.1036 52.7828 14.6708C52.7828 16.2639 53.1206 17.4864 53.7994 18.3415C54.4783 19.1965 55.4364 19.6225 56.6772 19.6225C57.9179 19.629 58.8761 19.19 59.5549 18.3122Z" fill="white"/>
<path d="M11.8123 14.2644L18.919 6.18172H12.5951L6.23548 13.5361V0.592773H0.928223V8.44461V9.05585C0.928223 12.4209 3.22132 13.8287 11.8123 14.2644Z" fill="white"/>
<path d="M0.928223 19.7974V20.4086V23.4161H6.23548V15.7138L12.842 23.4161H19.3412L11.8286 14.5889C3.22457 15.0245 0.928223 16.4323 0.928223 19.7974Z" fill="white"/>
</g>
<defs>
<clipPath id="clip0_243_247">
<rect width="69" height="24" fill="white"/>
</clipPath>
</defs>
</svg>
