<svg width="640" height="491" viewBox="0 0 640 491" fill="none" xmlns="http://www.w3.org/2000/svg">
<path fill-rule="evenodd" clip-rule="evenodd" d="M337.385 175.123C318.592 160.873 306.356 152.142 292.183 152.142C274.543 152.142 260.189 166.489 260.182 184.129C260.189 201.77 274.543 216.117 292.183 216.117C306.356 216.117 318.595 207.383 337.385 193.136L337.537 193.021C341.298 190.171 345.217 187.201 349.325 184.237V184.281C353.481 181.283 357.443 178.281 361.243 175.397C380.034 161.147 392.273 152.416 406.445 152.416C414.991 152.416 423.03 155.746 429.073 161.789C435.114 167.83 438.447 175.861 438.447 184.404C438.443 192.947 435.114 200.978 429.073 207.018C423.03 213.062 414.995 216.392 406.445 216.392C392.273 216.392 380.034 207.657 361.243 193.411L361.092 193.296C357.337 190.45 353.426 187.485 349.325 184.527V254.832C345.911 257.011 342.393 259.096 338.734 261.033C323.189 269.26 307.964 273.259 292.183 273.259C280.16 273.259 268.483 270.898 257.475 266.243C246.857 261.75 237.325 255.326 229.149 247.15C220.97 238.974 214.546 229.442 210.056 218.825C205.405 207.824 203.044 196.156 203.041 184.143V184.119C203.044 172.106 205.405 160.435 210.056 149.434C214.55 138.816 220.973 129.285 229.149 121.109C237.325 112.929 246.857 106.506 257.475 102.016C268.486 97.361 280.163 95 292.183 95C307.964 95 323.189 98.9989 338.734 107.225C342.39 109.163 345.911 111.248 349.325 113.427V184.022C345.161 181.018 341.193 178.012 337.385 175.123ZM128.766 323.547C116.535 323.548 112.516 333.408 112.516 345.913C112.516 358.418 116.532 368.373 128.768 368.373C138.901 368.373 142.462 361.982 143.375 354.406H157.801C156.339 369.195 146.39 379.969 128.953 379.969C109.047 379.965 98 365.634 98 346.095C98 326.555 109.41 311.951 129.314 311.951C146.569 311.951 156.244 322.452 157.797 336.783H143.372C142.186 329.935 138.808 323.548 128.766 323.547ZM176.602 350.842C166.013 353.031 158.07 356.501 158.07 366.453L158.073 366.456C158.073 374.582 163.915 379.969 173.135 379.969C180.166 379.969 185.553 376.957 188.747 372.574H188.928C189.569 377.048 191.849 379.056 197.145 379.056C199.062 379.056 201.525 378.78 203.9 378.325V371.934C203.354 372.025 203.078 372.025 202.714 372.025C201.161 372.025 200.797 370.745 200.797 367.915V348.561C200.797 335.139 193.584 330.392 181.989 330.392C166.832 330.392 160.532 337.878 160.077 346.826H172.128C172.583 341.621 175.14 339.249 181.53 339.249C186.644 339.249 188.652 341.348 188.652 344.269C188.652 348.491 183.417 349.511 177.937 350.579C177.492 350.666 177.047 350.753 176.602 350.842ZM188.652 355.042V359.971H188.649C188.649 366.362 184.357 371.018 177.693 371.018C173.31 371.018 171.03 369.192 171.03 365.267C171.03 361.342 173.496 359.152 179.886 357.69C184.087 356.686 186.917 355.955 188.652 355.042ZM218.956 331.945V339.98H219.138C221.513 334.775 225.438 331.305 231.007 331.305C232.375 331.305 233.564 331.305 235.114 331.578V342.807C233.928 342.625 233.106 342.534 232.102 342.534C224.98 342.534 218.956 347.462 218.956 355.955V378.598H206.448V331.945H218.956ZM249.633 378.595V373.575H249.814C251.913 376.496 256.751 379.966 263.691 379.966C275.923 379.966 284.231 370.563 284.231 355.225C284.231 339.886 275.923 330.484 263.691 330.484C256.754 330.484 251.913 334.136 249.814 336.874H249.633V313.323H237.124V378.595H249.633ZM260.588 370.381C253.921 370.381 249.905 364.903 249.905 355.225C249.905 345.64 253.925 340.162 260.588 340.162C267.619 340.162 271.362 346.095 271.362 355.225C271.362 364.354 267.619 370.381 260.588 370.381ZM285.154 355.315C285.154 340.708 294.284 330.392 309.622 330.392C324.961 330.392 333.814 340.435 333.814 355.133C333.814 369.832 324.684 380.056 309.437 380.056C294.189 380.056 285.154 370.014 285.154 355.315ZM321.032 355.224C321.032 345.913 317.108 340.068 309.528 340.068C301.948 340.068 297.932 345.909 297.932 355.224C297.932 364.539 301.857 370.472 309.528 370.472C317.199 370.472 321.032 364.539 321.032 355.224ZM348.973 331.946H336.464V378.594H348.973V351.024C348.973 344.269 352.898 340.799 359.197 340.799C364.766 340.799 367.323 343.814 367.323 350.569V378.601H379.832V346.738C379.832 336.056 373.441 330.487 364.493 330.487C356.367 330.487 351.621 334.321 349.155 338.336H348.973V331.946ZM382.02 366.453C382.02 356.501 389.964 353.031 400.553 350.842C400.997 350.753 401.443 350.666 401.887 350.579C407.368 349.511 412.603 348.491 412.603 344.269C412.603 341.348 410.595 339.249 405.481 339.249C399.09 339.249 396.533 341.621 396.079 346.826H384.028C384.483 337.878 390.783 330.392 405.939 330.392C417.535 330.392 424.748 335.139 424.748 348.561V367.915C424.748 370.745 425.112 372.025 426.665 372.025C427.029 372.025 427.305 372.025 427.851 371.934V378.325C425.475 378.78 423.013 379.056 421.096 379.056C415.8 379.056 413.519 377.048 412.879 372.574H412.697C409.504 376.957 404.117 379.969 397.086 379.969C387.865 379.969 382.024 374.582 382.024 366.456L382.02 366.453ZM412.603 359.971V355.042C410.868 355.955 408.038 356.686 403.837 357.69C397.446 359.152 394.98 361.342 394.98 365.267C394.98 369.192 397.261 371.018 401.644 371.018C408.308 371.018 412.6 366.362 412.6 359.971H412.603ZM442.889 378.595V373.575H443.071C445.17 376.496 450.007 379.966 456.947 379.966C469.18 379.966 477.487 370.563 477.487 355.225C477.487 339.886 469.18 330.484 456.947 330.484C450.011 330.484 445.17 334.136 443.071 336.874H442.889V313.323H430.38V378.595H442.889ZM453.844 370.381C447.177 370.381 443.162 364.903 443.162 355.225C443.162 345.64 447.181 340.162 453.844 340.162C460.875 340.162 464.618 346.095 464.618 355.225C464.618 364.354 460.875 370.381 453.844 370.381ZM492.66 313.323V378.598H480.151V313.323H492.66ZM519.226 330.392C504.069 330.392 495.398 341.166 495.398 355.224C495.398 369.741 504.163 380.056 519.226 380.056C532.007 380.056 539.402 373.666 541.959 364.354H529.268C528.355 367.002 525.798 370.472 519.498 370.472C512.65 370.472 508.085 365.543 507.994 358.603H542.414V355.955C542.414 339.795 534.382 330.392 519.226 330.392ZM529.726 350.296H507.997C508.543 343.72 512.65 339.795 519.135 339.795C525.62 339.795 529.726 343.814 529.726 350.296Z" fill="white"/>
</svg>
