<svg width="219" height="218" viewBox="0 0 219 218" fill="none" xmlns="http://www.w3.org/2000/svg"><path d="M42.1345 145.302L41.6942 144.54L45.8644 142.132C46.295 141.883 46.738 141.763 47.1935 141.771C47.6457 141.777 48.0752 141.908 48.4818 142.163C48.8864 142.418 49.2314 142.793 49.5166 143.287C49.8019 143.781 49.9541 144.268 49.9733 144.746C49.9904 145.225 49.8894 145.664 49.6704 146.061C49.4481 146.457 49.1217 146.779 48.6911 147.028L44.5209 149.436L44.0806 148.673L48.1893 146.301C48.4968 146.123 48.7315 145.898 48.8932 145.624C49.0529 145.351 49.1292 145.05 49.1222 144.721C49.1119 144.39 49.0056 144.05 48.8032 143.699C48.6007 143.349 48.3591 143.086 48.0782 142.912C47.7952 142.739 47.4963 142.655 47.1816 142.659C46.8636 142.662 46.5508 142.753 46.2432 142.93L42.1345 145.302Z" fill="#EFECEA"></path><path d="M36.4268 131.813L43.2732 129.36L43.5607 130.162L39.5221 135.819L39.546 135.886L44.9216 133.96L45.2186 134.789L38.3722 137.242L38.0847 136.44L42.1319 130.765L42.108 130.698L36.7191 132.629L36.4268 131.813Z" fill="#EFECEA"></path><path d="M41.1905 120.483L41.5582 122.697L34.3837 123.888L33.9998 121.576C33.8842 120.88 33.9289 120.261 34.134 119.718C34.3367 119.176 34.6835 118.728 35.1745 118.375C35.6632 118.023 36.2788 117.785 37.0215 117.662C37.7689 117.538 38.4344 117.564 39.0181 117.741C39.5994 117.918 40.0772 118.237 40.4513 118.698C40.8231 119.159 41.0695 119.754 41.1905 120.483ZM40.6432 121.956L40.4292 120.667C40.3307 120.074 40.1346 119.601 39.8409 119.249C39.5473 118.897 39.1732 118.661 38.7187 118.539C38.2642 118.418 37.745 118.406 37.1611 118.503C36.5819 118.599 36.099 118.776 35.7124 119.035C35.3234 119.294 35.0481 119.63 34.8863 120.043C34.7222 120.457 34.6867 120.944 34.7798 121.504L35.0102 122.892L40.6432 121.956Z" fill="#EFECEA"></path><path d="M40.1512 109.713L32.8793 109.604L32.945 105.216L33.7261 105.227L33.6737 108.735L36.1308 108.772L36.1798 105.491L36.961 105.503L36.9119 108.784L39.3832 108.821L39.4366 105.256L40.2177 105.268L40.1512 109.713Z" fill="#EFECEA"></path><path d="M41.1373 96.9841L34.0017 95.5786L34.4766 93.1676C34.5864 92.6101 34.7718 92.1713 35.0327 91.8511C35.2913 91.5304 35.6024 91.3166 35.9661 91.2097C36.3298 91.1028 36.7219 91.0907 37.1423 91.1736C37.5627 91.2564 37.9186 91.4157 38.21 91.6517C38.5013 91.8876 38.7049 92.2016 38.8207 92.5936C38.9342 92.9851 38.9365 93.4573 38.8276 94.0101L38.4433 95.9613L37.6628 95.8075L38.0417 93.8843C38.1167 93.5033 38.1213 93.1857 38.0556 92.9315C37.9903 92.6749 37.8658 92.4742 37.6819 92.3295C37.4963 92.1819 37.2606 92.08 36.9749 92.0237C36.6892 91.9674 36.4289 91.9717 36.1942 92.0364C35.9595 92.1012 35.7609 92.2394 35.5986 92.4511C35.4339 92.6624 35.3136 92.9608 35.2376 93.3464L34.9384 94.8655L41.3075 96.12L41.1373 96.9841ZM38.5934 92.994L42.1448 91.8693L41.9471 92.8728L38.4013 93.9696L38.5934 92.994Z" fill="#EFECEA"></path><path d="M40.6976 79.2386C40.3471 79.1468 40.0239 79.2056 39.7281 79.4151C39.4322 79.6245 39.2039 79.9342 39.043 80.3441C38.9254 80.6438 38.8709 80.925 38.8797 81.1879C38.8893 81.4485 38.9543 81.675 39.0747 81.8672C39.1959 82.0572 39.3646 82.1946 39.5805 82.2793C39.7612 82.3502 39.9335 82.3683 40.0972 82.3333C40.2596 82.2953 40.4106 82.2249 40.5502 82.122C40.6876 82.0182 40.8132 81.9022 40.9271 81.774C41.0388 81.6449 41.1359 81.524 41.2182 81.4114L41.6732 80.7965C41.7887 80.6383 41.9295 80.4673 42.0958 80.2833C42.263 80.0971 42.456 79.9326 42.6749 79.7896C42.8925 79.6435 43.1358 79.5483 43.405 79.5039C43.6743 79.4595 43.9675 79.4996 44.2849 79.6241C44.6507 79.7677 44.9436 79.9933 45.1637 80.3009C45.3846 80.6064 45.5103 80.9761 45.5409 81.4103C45.5722 81.8423 45.4859 82.3183 45.2818 82.8384C45.0915 83.3232 44.8485 83.7123 44.5528 84.0057C44.2579 84.2969 43.9308 84.4889 43.5713 84.5819C43.2127 84.6725 42.8431 84.6585 42.4625 84.5396L42.7946 83.6934C43.0589 83.7717 43.3042 83.7687 43.5305 83.6846C43.7555 83.5974 43.9541 83.4541 44.1265 83.2547C44.2975 83.0523 44.4358 82.8166 44.5413 82.5477C44.6641 82.2348 44.7237 81.9339 44.7201 81.6451C44.7142 81.3554 44.6484 81.102 44.5226 80.8848C44.3945 80.6667 44.2071 80.5092 43.9603 80.4123C43.7355 80.3241 43.5279 80.3151 43.3376 80.3854C43.1472 80.4556 42.9678 80.5759 42.7992 80.7463C42.6306 80.9166 42.4665 81.1078 42.307 81.3199L41.7421 82.0595C41.3824 82.5287 41.001 82.8623 40.5979 83.0601C40.1947 83.2579 39.765 83.2673 39.3088 83.0883C38.9298 82.9395 38.6394 82.7073 38.4378 82.3916C38.2348 82.0729 38.1234 81.7087 38.1036 81.2991C38.0824 80.8864 38.1566 80.4641 38.3262 80.0322C38.4974 79.5958 38.7279 79.2387 39.0175 78.9607C39.305 78.6819 39.6221 78.496 39.9688 78.4032C40.3163 78.3082 40.6631 78.3222 41.009 78.4453L40.6976 79.2386Z" fill="#EFECEA"></path><path d="M43.8663 70.6002L43.2017 70.1895L46.0691 65.5494L46.7337 65.9601L45.5315 67.9056L51.0536 71.318L50.5907 72.0672L45.0685 68.6547L43.8663 70.6002Z" fill="#EFECEA"></path><path d="M56.8883 63.4205L56.2705 64.1066L52.6527 57.2557L53.261 56.5801L60.4525 59.4619L59.8347 60.1481L53.8309 57.6666L53.7928 57.7089L56.8883 63.4205ZM55.0052 61.2662L57.4954 58.5005L58.076 59.0232L55.5858 61.7889L55.0052 61.2662Z" fill="#EFECEA"></path><path d="M64.9719 46.1912L69.4208 51.9444L68.7466 52.4658L62.1185 50.3729L62.0623 50.4163L65.5554 54.9335L64.8587 55.4723L60.4098 49.719L61.084 49.1977L67.7321 51.2931L67.7882 51.2497L64.2865 46.7212L64.9719 46.1912Z" fill="#EFECEA"></path><path d="M77.2144 47.224L75.2224 48.2578L71.8723 41.8027L73.9526 40.723C74.5788 40.3981 75.1817 40.2492 75.7613 40.2765C76.3398 40.3016 76.8726 40.4932 77.3598 40.8512C77.8459 41.207 78.2623 41.7191 78.6091 42.3873C78.9581 43.0597 79.1388 43.7008 79.1511 44.3105C79.1624 44.9181 79.0066 45.4711 78.6838 45.9693C78.3598 46.4655 77.87 46.8838 77.2144 47.224ZM75.6442 47.1587L76.8041 46.5568C77.3379 46.2798 77.7268 45.9472 77.9708 45.5592C78.2148 45.1711 78.3243 44.7422 78.2992 44.2725C78.2742 43.8027 78.1253 43.3052 77.8527 42.7799C77.5822 42.2587 77.2643 41.8543 76.8989 41.5665C76.5324 41.2766 76.1276 41.1186 75.6846 41.0924C75.2405 41.0642 74.7663 41.1809 74.262 41.4426L73.0139 42.0904L75.6442 47.1587Z" fill="#EFECEA"></path><path d="M103.806 34.3611L102.932 34.4662C102.85 34.2209 102.733 34.0109 102.581 33.836C102.431 33.6609 102.256 33.5197 102.058 33.4125C101.861 33.3026 101.648 33.2281 101.419 33.1888C101.19 33.1496 100.956 33.1444 100.716 33.1732C100.279 33.2258 99.8962 33.3839 99.5678 33.6475C99.2418 33.9109 99.0001 34.2702 98.8426 34.7255C98.6875 35.1805 98.6475 35.7206 98.7227 36.3458C98.7979 36.9711 98.9648 37.4863 99.2233 37.8916C99.4842 38.2966 99.8043 38.5883 100.183 38.7669C100.565 38.9451 100.974 39.008 101.411 38.9554C101.651 38.9266 101.878 38.866 102.091 38.7736C102.304 38.6812 102.493 38.5595 102.658 38.4085C102.826 38.2548 102.962 38.0751 103.066 37.8695C103.172 37.6612 103.236 37.4294 103.257 37.174L104.132 37.0688C104.11 37.4458 104.03 37.7904 103.891 38.1028C103.752 38.4152 103.566 38.6892 103.332 38.9248C103.098 39.158 102.826 39.3469 102.517 39.4914C102.21 39.6356 101.874 39.7296 101.51 39.7734C100.894 39.8474 100.328 39.7629 99.8126 39.5197C99.2969 39.2765 98.8682 38.894 98.5265 38.3724C98.1847 37.8508 97.9681 37.2092 97.8765 36.4476C97.7849 35.686 97.8433 35.0114 98.0516 34.4236C98.2599 33.8358 98.5857 33.3626 99.029 33.0041C99.4723 32.6456 100.002 32.4293 100.618 32.3552C100.982 32.3114 101.33 32.3232 101.663 32.3905C101.998 32.4576 102.306 32.5778 102.59 32.7512C102.873 32.9222 103.118 33.143 103.327 33.4136C103.536 33.6818 103.696 33.9976 103.806 34.3611Z" fill="#EFECEA"></path><path d="M112.101 39.2212L111.179 39.166L114.28 32.066L115.187 32.1203L117.418 39.5398L116.496 39.4845L114.693 33.2434L114.636 33.24L112.101 39.2212ZM112.611 36.4058L116.326 36.6283L116.279 37.4082L112.564 37.1856L112.611 36.4058Z" fill="#EFECEA"></path><path d="M124.339 40.7521L126.063 33.6867L128.45 34.2693C129.002 34.404 129.432 34.6089 129.74 34.8839C130.049 35.1566 130.249 35.4771 130.339 35.8452C130.43 36.2133 130.424 36.6055 130.323 37.0218C130.221 37.4381 130.046 37.7865 129.797 38.0669C129.548 38.3474 129.225 38.5367 128.829 38.6348C128.432 38.7306 127.961 38.7117 127.413 38.5781L125.481 38.1067L125.67 37.3339L127.574 37.7986C127.951 37.8907 128.268 37.9096 128.525 37.8553C128.785 37.8016 128.991 37.6862 129.144 37.509C129.299 37.3302 129.412 37.0993 129.481 36.8164C129.55 36.5335 129.557 36.2733 129.503 36.0359C129.449 35.7985 129.32 35.594 129.116 35.4223C128.912 35.2483 128.619 35.1147 128.237 35.0216L126.733 34.6545L125.194 40.9609L124.339 40.7521ZM128.439 38.3898L129.403 41.988L128.409 41.7455L127.473 38.1541L128.439 38.3898Z" fill="#EFECEA"></path><path d="M136.179 44.4513L139.137 37.8074L141.46 38.8415C141.923 39.0476 142.269 39.2976 142.498 39.5915C142.729 39.8832 142.858 40.1959 142.885 40.5296C142.914 40.8611 142.856 41.189 142.712 41.5134C142.585 41.7989 142.429 42.012 142.244 42.1528C142.062 42.2945 141.865 42.3828 141.652 42.4177C141.442 42.4537 141.23 42.4552 141.017 42.4224L140.988 42.4873C141.185 42.5907 141.358 42.7531 141.505 42.9744C141.653 43.1956 141.742 43.4581 141.773 43.762C141.803 44.0659 141.741 44.393 141.585 44.7433C141.436 45.0764 141.227 45.3422 140.958 45.5408C140.688 45.7395 140.355 45.8439 139.959 45.8542C139.563 45.8646 139.103 45.7532 138.58 45.5202L136.179 44.4513ZM137.302 44.0958L138.898 44.8065C139.423 45.0405 139.842 45.1049 140.153 44.9998C140.467 44.8936 140.689 44.6944 140.819 44.4025C140.919 44.1775 140.954 43.9444 140.924 43.703C140.896 43.4595 140.801 43.2333 140.64 43.0243C140.48 42.8131 140.255 42.643 139.965 42.514L138.33 41.786L137.302 44.0958ZM138.642 41.0853L140.134 41.7497C140.377 41.8575 140.616 41.9072 140.853 41.8987C141.092 41.8912 141.308 41.8264 141.499 41.7044C141.693 41.5834 141.842 41.4061 141.946 41.1725C142.076 40.8806 142.085 40.5877 141.972 40.2939C141.86 39.9979 141.584 39.7517 141.142 39.5553L139.624 38.8793L138.642 41.0853Z" fill="#EFECEA"></path><path d="M153.439 50.0682C153.007 50.7019 152.519 51.1716 151.976 51.4772C151.432 51.7828 150.875 51.9248 150.306 51.9031C149.736 51.8814 149.195 51.6959 148.682 51.3465C148.17 50.9971 147.799 50.5611 147.571 50.0387C147.343 49.5163 147.272 48.9462 147.357 48.3286C147.443 47.7109 147.702 47.0852 148.134 46.4514C148.566 45.8177 149.054 45.348 149.598 45.0424C150.142 44.7368 150.698 44.5948 151.268 44.6165C151.838 44.6382 152.379 44.8237 152.891 45.1731C153.404 45.5225 153.774 45.9585 154.002 46.4809C154.231 47.0033 154.302 47.5734 154.216 48.191C154.13 48.8087 153.871 49.4344 153.439 50.0682ZM152.735 49.5881C153.09 49.0678 153.302 48.5693 153.372 48.0926C153.444 47.6173 153.395 47.187 153.225 46.8018C153.057 46.4179 152.791 46.1019 152.427 45.8538C152.063 45.6058 151.671 45.473 151.25 45.4555C150.832 45.4393 150.413 45.5509 149.995 45.7901C149.579 46.0307 149.193 46.4112 148.839 46.9315C148.484 47.4518 148.27 47.9496 148.199 48.425C148.129 48.9016 148.178 49.3319 148.346 49.7158C148.516 50.101 148.783 50.4177 149.146 50.6658C149.51 50.9138 149.902 51.0459 150.32 51.0621C150.741 51.0796 151.16 50.968 151.576 50.7274C151.994 50.4882 152.38 50.1084 152.735 49.5881Z" fill="#EFECEA"></path><path d="M165.517 56.0159L160.413 61.1968L159.806 60.5987L160.99 53.7496L160.94 53.6997L156.932 57.7676L156.305 57.1495L161.409 51.9686L162.016 52.5667L160.832 59.4359L160.883 59.4858L164.9 55.4078L165.517 56.0159Z" fill="#EFECEA"></path><path d="M165.444 67.2979L164.913 66.5429L172.397 64.5403L172.92 65.2837L168.51 71.6537L167.979 70.8987L171.734 65.5975L171.701 65.551L165.444 67.2979ZM167.963 65.9414L170.106 68.9846L169.467 69.4343L167.324 66.3911L167.963 65.9414Z" fill="#EFECEA"></path><path d="M171.855 77.7758L178.454 74.7186L179.522 77.0257C179.735 77.4854 179.831 77.9014 179.811 78.2736C179.792 78.6448 179.684 78.9652 179.485 79.2347C179.289 79.5031 179.029 79.712 178.707 79.8613C178.423 79.9926 178.166 80.0506 177.934 80.0353C177.704 80.022 177.497 79.9587 177.314 79.8452C177.132 79.7338 176.971 79.5956 176.832 79.4304L176.768 79.4603C176.848 79.6682 176.872 79.904 176.837 80.1678C176.803 80.4316 176.697 80.6879 176.52 80.9369C176.344 81.1858 176.081 81.3909 175.733 81.5521C175.402 81.7053 175.07 81.768 174.736 81.74C174.402 81.7121 174.083 81.5717 173.778 81.319C173.473 81.0663 173.2 80.68 172.959 80.1602L171.855 77.7758ZM172.934 78.2465L173.668 79.8318C173.91 80.3538 174.183 80.6775 174.486 80.8031C174.793 80.9298 175.091 80.926 175.381 80.7917C175.604 80.6882 175.784 80.5357 175.92 80.3343C176.059 80.1319 176.136 79.899 176.152 79.6358C176.171 79.3715 176.114 79.0955 175.98 78.8076L175.228 77.1836L172.934 78.2465ZM175.924 76.8612L176.61 78.3434C176.722 78.584 176.87 78.7791 177.054 78.9286C177.239 79.0803 177.444 79.1733 177.668 79.2075C177.894 79.2439 178.123 79.2083 178.355 79.1008C178.645 78.9665 178.844 78.7516 178.952 78.4561C179.063 78.1597 179.016 77.7923 178.813 77.3541L178.115 75.8461L175.924 76.8612Z" fill="#EFECEA"></path><path d="M176.348 89.3044L183.386 87.4747L183.608 88.327L177.325 89.9602L178.176 93.2321L177.42 93.4287L176.348 89.3044Z" fill="#EFECEA"></path><path d="M178.714 101.352L185.967 100.808L186.295 105.185L185.516 105.244L185.254 101.745L182.803 101.929L183.048 105.201L182.269 105.259L182.024 101.987L179.559 102.172L179.826 105.727L179.047 105.786L178.714 101.352Z" fill="#EFECEA"></path><path d="M182.992 131.082L176.011 129.042L176.258 128.197L183.239 130.236L182.992 131.082Z" fill="#EFECEA"></path><path d="M176.948 145.544L170.443 142.291L170.825 141.529L177.704 140.539L177.736 140.475L172.629 137.921L173.023 137.133L179.528 140.386L179.146 141.149L172.247 142.145L172.216 142.209L177.335 144.769L176.948 145.544Z" fill="#EFECEA"></path><path d="M156.386 159.853C156.73 159.534 157.091 159.309 157.47 159.177C157.846 159.047 158.211 159.014 158.564 159.078C158.916 159.144 159.229 159.311 159.502 159.578L158.846 160.186C158.673 160.027 158.477 159.934 158.256 159.905C158.038 159.879 157.813 159.91 157.582 159.998C157.351 160.087 157.133 160.226 156.928 160.416C156.699 160.629 156.533 160.857 156.43 161.101C156.327 161.345 156.291 161.585 156.323 161.821C156.354 162.056 156.457 162.268 156.631 162.455C156.813 162.651 157.022 162.779 157.257 162.838C157.494 162.899 157.746 162.885 158.013 162.796C158.279 162.707 158.547 162.537 158.818 162.286L159.245 161.89L159.776 162.463L159.35 162.859C159.138 163.055 158.988 163.266 158.899 163.49C158.808 163.716 158.782 163.941 158.821 164.163C158.858 164.387 158.963 164.593 159.137 164.78C159.304 164.961 159.49 165.081 159.694 165.141C159.898 165.2 160.107 165.2 160.322 165.139C160.535 165.08 160.74 164.959 160.936 164.777C161.12 164.607 161.262 164.412 161.363 164.193C161.463 163.977 161.505 163.758 161.49 163.537C161.477 163.317 161.392 163.114 161.237 162.929L161.861 162.35C162.11 162.639 162.253 162.961 162.29 163.318C162.328 163.676 162.275 164.033 162.129 164.387C161.982 164.744 161.755 165.064 161.448 165.349C161.118 165.655 160.773 165.851 160.413 165.936C160.055 166.023 159.711 166.017 159.383 165.918C159.055 165.819 158.775 165.643 158.541 165.391C158.263 165.091 158.104 164.762 158.066 164.404C158.025 164.047 158.102 163.703 158.295 163.372L158.256 163.33C157.868 163.587 157.472 163.688 157.069 163.633C156.667 163.579 156.31 163.383 155.996 163.045C155.727 162.755 155.564 162.421 155.508 162.044C155.451 161.67 155.497 161.291 155.646 160.908C155.794 160.525 156.041 160.173 156.386 159.853Z" fill="#EFECEA"></path><path d="M141.532 178.481L140.559 178.88L135.983 174.231L135.904 174.263L135.906 180.787L134.934 181.185L132.176 174.456L132.938 174.143L135.033 179.256L135.099 179.229L135.107 173.255L135.843 172.953L140.041 177.204L140.107 177.177L138.011 172.064L138.774 171.752L141.532 178.481Z" fill="#EFECEA"></path><path d="M124.631 183.886L123.119 176.772L123.98 176.589L125.493 183.703L124.631 183.886Z" fill="#EFECEA"></path><path d="M109.033 185.414L108.816 178.145L109.667 178.12L113.8 183.709L113.871 183.707L113.7 177.999L114.58 177.972L114.798 185.242L113.946 185.267L109.799 179.665L109.728 179.667L109.899 185.389L109.033 185.414Z" fill="#EFECEA"></path><path d="M96.2605 184.219L95.3897 184.088L96.1073 179.326C96.1814 178.834 96.3635 178.413 96.6535 178.062C96.9407 177.712 97.3107 177.458 97.7632 177.299C98.2154 177.142 98.7236 177.106 99.2878 177.191C99.852 177.276 100.327 177.46 100.713 177.743C101.098 178.029 101.378 178.381 101.552 178.8C101.723 179.221 101.772 179.677 101.698 180.169L100.98 184.93L100.109 184.799L100.816 180.108C100.869 179.756 100.839 179.432 100.726 179.135C100.612 178.84 100.424 178.593 100.162 178.393C99.8978 178.195 99.5653 178.066 99.165 178.006C98.7647 177.945 98.4089 177.971 98.0977 178.082C97.7861 178.195 97.5338 178.376 97.3407 178.625C97.1449 178.875 97.0205 179.176 96.9676 179.528L96.2605 184.219Z" fill="#EFECEA"></path><path d="M87.1608 181.218L86.9083 181.957L81.7466 180.194L81.9991 179.455L84.1632 180.194L86.2614 174.051L87.0948 174.335L84.9967 180.478L87.1608 181.218Z" fill="#EFECEA"></path><path d="M77.6438 170.326L74.102 176.678L70.2685 174.54L70.6489 173.858L73.7133 175.567L74.91 173.42L72.0441 171.822L72.4246 171.14L75.2905 172.738L76.4941 170.579L73.3801 168.843L73.7606 168.161L77.6438 170.326Z" fill="#EFECEA"></path><path d="M60.3575 165.108C60.1619 165.413 60.1179 165.738 60.2257 166.084C60.3335 166.43 60.5574 166.743 60.8975 167.023C61.1462 167.227 61.3969 167.366 61.6496 167.439C61.9004 167.51 62.1359 167.519 62.3559 167.463C62.5741 167.407 62.7568 167.289 62.9042 167.11C63.0275 166.96 63.0978 166.802 63.1152 166.635C63.1293 166.469 63.1089 166.303 63.0542 166.139C62.998 165.976 62.9265 165.821 62.8397 165.673C62.7514 165.527 62.6665 165.397 62.5848 165.284L62.1406 164.661C62.0258 164.503 61.9067 164.316 61.7831 164.101C61.6577 163.884 61.5608 163.65 61.4925 163.397C61.4208 163.145 61.4055 162.884 61.4464 162.615C61.4874 162.345 61.6161 162.078 61.8327 161.815C62.0822 161.512 62.3873 161.303 62.7479 161.188C63.1066 161.073 63.4972 161.067 63.9195 161.173C64.34 161.276 64.7661 161.505 65.1976 161.86C65.5999 162.191 65.8949 162.542 66.0826 162.914C66.2684 163.285 66.3499 163.655 66.3272 164.026C66.3027 164.395 66.1751 164.742 65.9444 165.067L65.2422 164.49C65.3983 164.263 65.4714 164.029 65.4613 163.787C65.4479 163.546 65.373 163.313 65.2366 163.088C65.0969 162.862 64.9155 162.658 64.6924 162.475C64.4328 162.261 64.165 162.112 63.8892 162.026C63.6119 161.942 63.3505 161.926 63.105 161.979C62.858 162.033 62.6503 162.163 62.4819 162.367C62.3286 162.554 62.2559 162.749 62.2639 162.951C62.2719 163.154 62.3309 163.362 62.4408 163.575C62.5507 163.788 62.6819 164.003 62.8342 164.22L63.3631 164.986C63.6982 165.473 63.8975 165.939 63.9611 166.383C64.0246 166.828 63.9008 167.24 63.5896 167.618C63.3309 167.933 63.0204 168.137 62.6578 168.231C62.292 168.326 61.9112 168.319 61.5155 168.211C61.1165 168.104 60.7378 167.903 60.3794 167.608C60.0173 167.311 59.7489 166.981 59.574 166.62C59.3977 166.26 59.3189 165.901 59.3378 165.543C59.3548 165.183 59.4753 164.857 59.6992 164.566L60.3575 165.108Z" fill="#EFECEA"></path></svg>